HIERARCHY
ROOT Hips
{
	OFFSET 55.310501 45.591206 43.872097
	CHANNELS 6 Xposition Yposition Zposition Zrotation Xrotation Yrotation
	JOINT Chest
	{
		OFFSET -0.153500 1.163101 7.852402
		CHANNELS 6 Xposition Yposition Zposition Zrotation Xrotation Yrotation
		JOINT Chest2
		{
			OFFSET 0.000000 0.000000 3.343300
			CHANNELS 6 Xposition Yposition Zposition Zrotation Xrotation Yrotation
			JOINT Neck
			{
				OFFSET 0.000000 0.000000 7.785500
				CHANNELS 6 Xposition Yposition Zposition Zrotation Xrotation Yrotation
				JOINT Head
				{
					OFFSET 0.000000 0.000000 2.173901
					CHANNELS 6 Xposition Yposition Zposition Zrotation Xrotation Yrotation
					End Site
					{
						OFFSET 0.000000 0.000000 10.528198
					}
				}
			}
			JOINT LeftCollar
			{
				OFFSET 2.676300 -1.652401 4.938301
				CHANNELS 6 Xposition Yposition Zposition Zrotation Xrotation Yrotation
				JOINT LeftShoulder
				{
					OFFSET 4.299000 0.000000 0.000000
					CHANNELS 6 Xposition Yposition Zposition Zrotation Xrotation Yrotation
					JOINT LeftElbow
					{
						OFFSET 0.000000 0.000000 -10.245102
						CHANNELS 6 Xposition Yposition Zposition Zrotation Xrotation Yrotation
						JOINT LeftWrist
						{
							OFFSET 0.000000 0.000000 -12.703300
							CHANNELS 6 Xposition Yposition Zposition Zrotation Xrotation Yrotation
							End Site
							{
								OFFSET 0.000000 0.000000 -2.173901
							}
						}
					}
				}
			}
			JOINT RightCollar
			{
				OFFSET -2.534599 -1.686401 5.195000
				CHANNELS 6 Xposition Yposition Zposition Zrotation Xrotation Yrotation
				JOINT RightShoulder
				{
					OFFSET -4.144100 0.000000 0.000000
					CHANNELS 6 Xposition Yposition Zposition Zrotation Xrotation Yrotation
					JOINT RightElbow
					{
						OFFSET 0.000000 0.000000 -10.116501
						CHANNELS 6 Xposition Yposition Zposition Zrotation Xrotation Yrotation
						JOINT RightWrist
						{
							OFFSET 0.000000 0.000000 -12.937801
							CHANNELS 6 Xposition Yposition Zposition Zrotation Xrotation Yrotation
							End Site
							{
								OFFSET 0.000000 0.000000 -2.173901
							}
						}
					}
				}
			}
		}
	}
	JOINT LeftHip
	{
		OFFSET 2.175598 0.064499 -2.662899
		CHANNELS 6 Xposition Yposition Zposition Zrotation Xrotation Yrotation
		JOINT LeftKnee
		{
			OFFSET 0.000000 -0.000004 -18.585800
			CHANNELS 6 Xposition Yposition Zposition Zrotation Xrotation Yrotation
			JOINT LeftAnkle
			{
				OFFSET 0.000000 0.000000 -18.979500
				CHANNELS 6 Xposition Yposition Zposition Zrotation Xrotation Yrotation
				End Site
				{
					OFFSET 0.000000 -9.264000 0.000000
				}
			}
		}
	}
	JOINT RightHip
	{
		OFFSET -2.092400 -0.058102 -2.581200
		CHANNELS 6 Xposition Yposition Zposition Zrotation Xrotation Yrotation
		JOINT RightKnee
		{
			OFFSET 0.000000 -0.000004 -18.665001
			CHANNELS 6 Xposition Yposition Zposition Zrotation Xrotation Yrotation
			JOINT RightAnkle
			{
				OFFSET 0.000000 0.000000 -18.566601
				CHANNELS 6 Xposition Yposition Zposition Zrotation Xrotation Yrotation
				End Site
				{
					OFFSET 0.000000 -8.497601 0.000000
				}
			}
		}
	}
}
MOTION
Frames: 6
Frame Time: 0.041667
68.202003 37.783096 41.909492 1776.313528 11.497438 -4.961073 -0.153494 1.163106 7.852405 -12.334528 10.236727 6.230973 -0.000000 0.000003 3.343305 -0.426246 -7.043737 0.018690 -0.000007 -0.000003 7.785503 55.367388 -7.166737 -3.984842 0.000002 0.000008 2.173901 7.121334 -1.757183 7.742758 2.676296 -1.652400 4.938307 -2.790802 1.716513 13.429976 4.298998 0.000007 0.000002 -9.294069 -0.436287 -66.976794 -0.000008 0.000001 -10.245104 72.883173 712.429766 1.276080 -0.000003 -0.000001 -12.703295 1328.296613 -179.476935 539.067599 -2.534598 -1.686396 5.195009 1.218526 2.960343 0.969733 -4.144099 0.000004 -0.000008 56.018408 -32.926416 105.575395 -0.000010 -0.000006 -10.116509 -107.569455 5.893719 -42.256208 -0.000005 0.000005 -12.937803 -228.923325 -23.004835 -12.919024 2.175605 0.064501 -2.662896 -694.119614 -30.539996 14.834232 -0.000001 -0.000004 -18.585810 146.854764 -225.106219 -142.476366 -0.000002 -0.000003 -18.979515 757.412736 -6.196870 -120.196016 -2.092398 -0.058097 -2.581195 934.496647 -19.920243 -113.207831 0.000008 -0.000002 -18.665010 -1279.673097 84.415619 -475.262048 -0.000003 0.000007 -18.566603 728.409458 0.248739 -0.998165
68.193298 37.765701 41.905697 1776.517450 11.418914 -4.981770 -0.153500 1.163096 7.852404 -12.416747 10.359999 6.162473 0.000007 0.000001 3.343302 -0.517612 -7.085237 0.016140 0.000003 0.000002 7.785498 55.366726 -7.089628 -3.874285 0.000008 0.000005 2.173904 6.996129 -1.775095 7.697868 2.676289 -1.652399 4.938307 -3.000503 1.880909 13.500999 4.298996 0.000015 -0.000010 -8.978524 -0.757501 -66.951768 -0.000002 -0.000015 -10.245105 72.942964 712.508231 1.255171 0.000005 -0.000008 -12.703296 1328.023077 -179.558420 538.943453 -2.534598 -1.686399 5.195002 0.952862 2.767670 1.023801 -4.144102 -0.000004 -0.000006 55.938658 -32.467567 105.149553 -0.000008 0.000004 -10.116504 -107.861623 5.915817 -42.475942 0.000002 0.000006 -12.937805 -228.709048 -22.806108 -12.948102 2.175592 0.064491 -2.662895 -694.350966 -30.500165 14.698261 0.000006 -0.000006 -18.585800 146.865569 -225.168360 -142.373763 -0.000005 -0.000002 -18.979509 757.243184 -6.252053 -120.170280 -2.092405 -0.058103 -2.581195 934.422771 -19.934732 -113.057785 -0.000001 -0.000001 -18.665009 -1280.983291 84.446150 -473.897376 -0.000002 -0.000003 -18.566597 728.372357 0.244206 -1.060012
68.184906 37.754803 41.907688 1776.548268 11.486286 -4.952848 -0.153498 1.163102 7.852400 -12.277279 10.324944 6.049341 0.000006 0.000006 3.343297 -0.597584 -7.096640 0.014493 -0.000009 -0.000009 7.785504 55.319516 -6.979179 -3.748819 -0.000004 -0.000000 2.173908 7.041246 -1.785439 7.679868 2.676290 -1.652414 4.938306 -3.109058 1.973507 13.550333 4.298999 -0.000001 0.000001 -8.861571 -0.826904 -66.884033 -0.000003 0.000001 -10.245106 73.306043 712.578336 1.300312 -0.000002 -0.000004 -12.703310 1327.943629 -179.596177 538.442554 -2.534601 -1.686409 5.194999 1.210191 2.971469 1.293168 -4.144101 0.000004 -0.000010 55.317453 -32.499563 105.005266 -0.000010 -0.000006 -10.116499 -108.063729 6.090336 -42.745038 0.000002 -0.000002 -12.937804 -228.545506 -22.687033 -12.932863 2.175596 0.064495 -2.662896 -694.371511 -30.603796 14.631252 -0.000012 -0.000006 -18.585806 146.862004 -225.239626 -142.264521 -0.000010 -0.000001 -18.979511 757.115159 -6.308046 -120.141962 -2.092402 -0.058097 -2.581202 934.477085 -19.851024 -112.996689 0.000008 -0.000001 -18.665012 -1282.288677 84.375793 -472.559424 0.000003 -0.000006 -18.566599 728.310502 0.230033 -1.259531
68.176811 37.744904 41.909096 1776.585752 11.568807 -4.927951 -0.153497 1.163105 7.852406 -12.131681 10.272633 5.918440 0.000009 0.000005 3.343308 -0.684908 -7.099667 0.012899 0.000006 0.000005 7.785508 55.318955 -6.867022 -3.646468 0.000006 -0.000001 2.173903 7.068546 -1.806952 7.701989 2.676296 -1.652396 4.938306 -3.269417 2.084948 13.578509 4.299006 0.000003 0.000001 -8.684889 -0.910532 -66.751801 -0.000008 -0.000002 -10.245102 73.512889 712.622323 1.324583 -0.000002 -0.000003 -12.703298 1327.884507 -179.640696 538.286990 -2.534594 -1.686391 5.195009 1.581849 3.261502 1.639416 -4.144098 0.000010 -0.000011 54.632504 -32.608634 104.894009 -0.000004 -0.000001 -10.116507 -108.391414 6.205101 -42.947403 -0.000002 0.000001 -12.937809 -228.211551 -22.479414 -12.887631 2.175594 0.064501 -2.662892 -694.392548 -30.716785 14.581663 0.000000 -0.000006 -18.585804 146.797609 -225.279474 -142.135649 -0.000011 0.000001 -18.979513 757.060025 -6.370858 -120.162917 -2.092402 -0.058094 -2.581195 934.539267 -19.779183 -113.001805 0.000009 -0.000007 -18.665009 -1282.182126 84.427374 -472.641222 0.000008 -0.000003 -18.566601 728.318425 0.231638 -1.304800
68.169296 37.733997 41.910297 1776.648152 11.632455 -4.915854 -0.153491 1.163104 7.852405 -12.017311 10.238571 5.808510 -0.000009 0.000005 3.343304 -0.763865 -7.097192 0.011507 -0.000007 0.000000 7.785508 55.325673 -6.779665 -3.553808 0.000005 0.000010 2.173912 7.074963 -1.818689 7.684361 2.676285 -1.652396 4.938315 -3.433763 2.197765 13.512600 4.299003 0.000003 -0.000003 -8.514455 -0.972195 -66.511460 0.000010 -0.000007 -10.245099 73.656637 712.673522 1.332406 -0.000008 0.000000 -12.703297 1327.661897 -179.723738 538.414086 -2.534601 -1.686398 5.195002 1.377377 3.201399 1.697576 -4.144101 0.000000 -0.000005 54.658176 -32.281793 104.785757 -0.000000 0.000000 -10.116503 -108.643530 6.169880 -42.897191 -0.000007 -0.000003 -12.937799 -228.059006 -22.503899 -12.772064 2.175595 0.064493 -2.662894 -694.440414 -30.807261 14.539419 0.000002 -0.000006 -18.585798 146.783019 -225.331438 -142.053509 -0.000007 -0.000001 -18.979513 756.988445 -6.422648 -120.188640 -2.092398 -0.058100 -2.581194 934.616093 -19.773073 -112.971875 0.000009 -0.000008 -18.665014 -1281.600959 84.561724 -473.209221 0.000000 0.000002 -18.566601 728.322633 0.197892 -1.230071
68.158699 37.721397 41.911198 1776.666403 11.708102 -4.871735 -0.153495 1.163100 7.852398 -11.875373 10.207283 5.689006 0.000003 0.000000 3.343300 -0.824736 -7.081993 0.010662 0.000001 -0.000005 7.785501 55.349299 -6.732953 -3.474496 0.000006 -0.000002 2.173902 7.057730 -1.867831 7.711236 2.676301 -1.652405 4.938303 -3.598176 2.277886 13.489110 4.298991 0.000003 -0.000000 -8.327186 -1.008901 -66.297081 0.000002 -0.000005 -10.245108 73.855307 712.625765 1.382523 0.000012 -0.000002 -12.703299 1327.608458 -179.733027 538.162954 -2.534596 -1.686404 5.194998 1.586384 3.345700 1.940317 -4.144103 0.000006 -0.000008 54.387533 -32.470610 104.772049 -0.000009 -0.000003 -10.116499 -108.637239 6.081772 -42.822308 -0.000000 0.000008 -12.937804 -228.111120 -22.534722 -12.742818 2.175601 0.064497 -2.662897 -694.452708 -30.925215 14.482277 -0.000016 -0.000012 -18.585802 146.860597 -225.439450 -142.028060 -0.000004 0.000010 -18.979513 756.852825 -6.466427 -120.187041 -2.092388 -0.058104 -2.581199 934.709093 -19.762572 -112.959458 0.000008 -0.000008 -18.665010 -1281.278574 84.673568 -473.428224 -0.000002 -0.000008 -18.566601 728.494863 0.365457 -0.846824
